{"title":"Skyfall[2012]BRrip[Ac3-5.1]-=[CaLvIn]=-","uid":8125550,"size":1070988812,"categoryP":"video","categoryS":"movies","magnet":"?xt=urn:btih:1331725438f731d875de1fbaffeca61e61ed732d&amp;dn=Skyfall%5B2012%5DBRrip%5BAc3-5.1%5D-%3D%5BCaLvIn%5D%3D-&amp;tr=udp%3A%2F%2Ftracker.openbittorrent.com%3A80&amp;tr=udp%3A%2F%2Fopen.demonii.com%3A1337&amp;tr=udp%3A%2F%2Ftracker.coppersurfer.tk%3A6969&amp;tr=udp%3A%2F%2Fexodus.desync.com%3A6969","seeders":1,"leechers":0,"uploader":"rhythmtheguru","files":15,"time":1360494932,"description":"General\nComplete name                    : Skyfall[2012]BRrip[Ac3-5.1]-=[CaLvIn]=-\nImdb Link                        : http://www.imdb.com/title/tt1074638\nFormat                           : AVI\nFormat/Info                      : Audio Video Interleave\nFile size                        : 1 000 MiB\nDuration                         : 2h 17mn\nOverall bit rate                 : 1 014 Kbps\nWriting application              : VirtualDubMod 1.5.10.3 | www.virtualdub-fr.org || (build 2550/release)\nWriting library                  : VirtualDubMod build 2550/release\n\nVideo\nID                               : 0\nFormat                           : MPEG-4 Visual\nFormat profile                   : Advanced Simple@L5\nFormat settings, BVOP            : 2\nFormat settings, QPel            : No\nFormat settings, GMC             : No warppoints\nFormat settings, Matrix          : Default (H.263)\nCodec ID                         : XVID\nCodec ID/Hint                    : XviD\nDuration                         : 2h 17mn\nBit rate                         : 748 Kbps\nWidth                            : 720 pixels\nHeight                           : 400 pixels\nDisplay aspect ratio             : 16:9\nFrame rate                       : 23.976 fps\nColor space                      : YUV\nChroma subsampling               : 4:2:0\nBit depth                        : 8 bits\nScan type                        : Progressive\nCompression mode                 : Lossy\nBits/(Pixel*Frame)               : 0.108\nStream size                      : 738 MiB (74%)\nWriting library                  : XviD 1.2.1 (UTC 2008-12-04)\n\nAudio\nID                               : 1\nFormat                           : AC-3\nFormat/Info                      : Audio Coding 3\nMode extension                   : CM (complete main)\nCodec ID                         : 2000\nDuration                         : 2h 17mn\nBit rate mode                    : Constant\nBit rate                         : 256 Kbps\nChannel(s)                       : 6 channels\nChannel positions                : Front: L C R, Side: L R, LFE\nSampling rate                    : 48.0 KHz\nBit depth                        : 16 bits\nCompression mode                 : Lossy\nStream size                      : 253 MiB (25%)\nAlignment                        : Split accross interleaves\nInterleave, duration             : 42 ms (1.00 video frame)\nInterleave, preload duration     : 500 ms\n\nScreens\n &lt;a href=&quot;\nhttp://img10.imageshack.us/img10/6960/68928830.png&quot; rel=&quot;nofollow&quot; target=&quot;_NEW&quot;&gt;\nhttp://img10.imageshack.us/img10/6960/68928830.png&lt;/a&gt; &lt;a href=&quot;\nhttp://img826.imageshack.us/img826/2760/96386812.png&quot; rel=&quot;nofollow&quot; target=&quot;_NEW&quot;&gt;\nhttp://img826.imageshack.us/img826/2760/96386812.png&lt;/a&gt; &lt;a href=&quot;\nhttp://img94.imageshack.us/img94/5259/36917489.png&quot; rel=&quot;nofollow&quot; target=&quot;_NEW&quot;&gt;\nhttp://img94.imageshack.us/img94/5259/36917489.png&lt;/a&gt; &lt;a href=&quot;\nhttp://img62.imageshack.us/img62/976/90941186.png&quot; rel=&quot;nofollow&quot; target=&quot;_NEW&quot;&gt;\nhttp://img62.imageshack.us/img62/976/90941186.png&lt;/a&gt; &lt;a href=&quot;\nhttp://img713.imageshack.us/img713/1895/58884733.png&quot; rel=&quot;nofollow&quot; target=&quot;_NEW&quot;&gt;\nhttp://img713.imageshack.us/img713/1895/58884733.png&lt;/a&gt; &lt;a href=&quot;\nhttp://img12.imageshack.us/img12/6201/99202015.png&quot; rel=&quot;nofollow&quot; target=&quot;_NEW&quot;&gt;\nhttp://img12.imageshack.us/img12/6201/99202015.png&lt;/a&gt; &lt;a href=&quot;\nhttp://img32.imageshack.us/img32/8554/70455417.png&quot; rel=&quot;nofollow&quot; target=&quot;_NEW&quot;&gt;\nhttp://img32.imageshack.us/img32/8554/70455417.png&lt;/a&gt; &lt;a href=&quot;\nhttp://img407.imageshack.us/img407/6326/90270487.png&quot; rel=&quot;nofollow&quot; target=&quot;_NEW&quot;&gt;\nhttp://img407.imageshack.us/img407/6326/90270487.png&lt;/a&gt; &lt;a href=&quot;\nhttp://img690.imageshack.us/img690/9910/32341253.png&quot; rel=&quot;nofollow&quot; target=&quot;_NEW&quot;&gt;\nhttp://img690.imageshack.us/img690/9910/32341253.png&lt;/a&gt; &lt;a href=&quot;\nhttp://img28.imageshack.us/img28/1157/53969269.png&quot; rel=&quot;nofollow&quot; target=&quot;_NEW&quot;&gt;\nhttp://img28.imageshack.us/img28/1157/53969269.png&lt;/a&gt;","torrent":{"xt":"urn:btih:1331725438f731d875de1fbaffeca61e61ed732d","amp;dn":"Skyfall%5B2012%5DBRrip%5BAc3-5.1%5D-%3D%5BCaLvIn%5D%3D-","amp;tr":["udp%3A%2F%2Ftracker.openbittorrent.com%3A80","udp%3A%2F%2Fopen.demonii.com%3A1337","udp%3A%2F%2Ftracker.coppersurfer.tk%3A6969","udp%3A%2F%2Fexodus.desync.com%3A6969"],"infoHash":"1331725438f731d875de1fbaffeca61e61ed732d","infoHashBuffer":{"type":"Buffer","data":[19,49,114,84,56,247,49,216,117,222,31,186,255,236,166,30,97,237,115,45]},"announce":[],"urlList":[]}}